<svg xmlns="http://www.w3.org/2000/svg" viewBox="0 0 1200 900">
  <defs>
    <linearGradient id="signalBackground" x1="0%" y1="0%" x2="100%" y2="100%">
      <stop offset="0%" stop-color="#120214" />
      <stop offset="45%" stop-color="#33072f" />
      <stop offset="100%" stop-color="#f26d9f" />
    </linearGradient>
  </defs>
  <rect width="1200" height="900" fill="url(#signalBackground)" />
  <g stroke="#fce7f3" stroke-width="4" stroke-dasharray="16 14" opacity="0.5">
    <path d="M140 720 C220 540 420 540 520 360 C620 180 880 220 1060 100" />
    <path d="M80 640 C180 520 380 540 520 460 C660 380 920 380 1120 300" />
  </g>
  <g fill="#fdf2f8" opacity="0.3">
    <circle cx="320" cy="260" r="30" />
    <circle cx="520" cy="160" r="40" />
    <circle cx="860" cy="220" r="36" />
    <circle cx="980" cy="120" r="28" />
  </g>
  <g fill="#f9a8d4" opacity="0.6">
    <rect x="180" y="540" width="120" height="160" rx="24" />
    <rect x="360" y="520" width="120" height="160" rx="24" />
    <rect x="840" y="500" width="140" height="180" rx="24" />
    <rect x="1020" y="540" width="100" height="150" rx="24" />
  </g>
  <text x="120" y="200" fill="#fff7fb" font-family="Arial, sans-serif" font-size="78" font-weight="bold">
    Signalglow
  </text>
  <text x="120" y="270" fill="#fee2f2" font-family="Arial, sans-serif" font-size="30">
    Remix the battlefield with synth-powered signal sweeps
  </text>
</svg>
